<?xml version="1.0" encoding="UTF-8"?>
<svg xmlns="http://www.w3.org/2000/svg" xmlns:xlink="http://www.w3.org/1999/xlink" height="199.8" preserveAspectRatio="xMidYMid meet" version="1.0" viewBox="99.6 112.7 226.0 199.8" width="226.0" zoomAndPan="magnify"><g><g id="change1_1"><path d="M 118.402344 224.28125 C 120.292969 223.3125 123.101562 222.902344 127.441406 222.46875 C 123.101562 222.03125 120.292969 221.625 118.402344 220.65625 C 119.054688 218.640625 120.753906 216.363281 123.515625 212.984375 C 120.136719 215.75 117.863281 217.445312 115.84375 218.097656 C 114.878906 216.210938 114.46875 213.402344 114.035156 209.0625 C 113.597656 213.402344 113.191406 216.210938 112.222656 218.097656 C 110.203125 217.445312 107.925781 215.75 104.550781 212.988281 C 107.316406 216.363281 109.011719 218.640625 109.660156 220.65625 C 107.773438 221.625 104.964844 222.03125 100.621094 222.46875 C 104.964844 222.902344 107.773438 223.3125 109.65625 224.28125 C 109.007812 226.296875 107.3125 228.570312 104.546875 231.953125 C 107.925781 229.1875 110.203125 227.492188 112.222656 226.84375 C 113.191406 228.730469 113.597656 231.535156 114.035156 235.882812 C 114.46875 231.535156 114.878906 228.730469 115.84375 226.84375 C 117.863281 227.492188 120.136719 229.1875 123.515625 231.953125 C 120.753906 228.570312 119.054688 226.296875 118.402344 224.28125" fill="#fbc439"/></g><path d="M 1184.023438 2009.1875 C 1202.929688 2018.875 1231.015625 2022.976562 1274.414062 2027.3125 C 1231.015625 2031.6875 1202.929688 2035.75 1184.023438 2045.4375 C 1190.546875 2065.59375 1207.539062 2088.367188 1235.15625 2122.15625 C 1201.367188 2094.5 1178.632812 2077.546875 1158.4375 2071.023438 C 1148.789062 2089.890625 1144.6875 2117.976562 1140.351562 2161.375 C 1135.976562 2117.976562 1131.914062 2089.890625 1122.226562 2071.023438 C 1102.03125 2077.546875 1079.257812 2094.5 1045.507812 2122.117188 C 1073.164062 2088.367188 1090.117188 2065.59375 1096.601562 2045.4375 C 1077.734375 2035.75 1049.648438 2031.6875 1006.210938 2027.3125 C 1049.648438 2022.976562 1077.734375 2018.875 1096.5625 2009.1875 C 1090.078125 1989.03125 1073.125 1966.296875 1045.46875 1932.46875 C 1079.257812 1960.125 1102.03125 1977.078125 1122.226562 1983.5625 C 1131.914062 1964.695312 1135.976562 1936.648438 1140.351562 1893.171875 C 1144.6875 1936.648438 1148.789062 1964.695312 1158.4375 1983.5625 C 1178.632812 1977.078125 1201.367188 1960.125 1235.15625 1932.46875 C 1207.539062 1966.296875 1190.546875 1989.03125 1184.023438 2009.1875 Z M 1184.023438 2009.1875" fill="none" stroke="#0a2f4d" stroke-linejoin="round" stroke-miterlimit="10" stroke-width="20" transform="matrix(.1 0 0 -.1 0 425.2)"/><g id="change1_2"><path d="M 315.539062 192.832031 C 317.429688 191.863281 320.234375 191.457031 324.578125 191.019531 C 320.234375 190.585938 317.429688 190.179688 315.539062 189.210938 C 316.1875 187.191406 317.886719 184.914062 320.648438 181.539062 C 317.273438 184.300781 314.996094 185.996094 312.980469 186.648438 C 312.011719 184.761719 311.601562 181.953125 311.171875 177.609375 C 310.734375 181.953125 310.328125 184.765625 309.355469 186.648438 C 307.339844 185.996094 305.0625 184.300781 301.6875 181.539062 C 304.449219 184.917969 306.144531 187.191406 306.796875 189.210938 C 304.90625 190.179688 302.101562 190.585938 297.757812 191.019531 C 302.101562 191.453125 304.90625 191.863281 306.792969 192.832031 C 306.144531 194.847656 304.445312 197.125 301.683594 200.503906 C 305.0625 197.738281 307.339844 196.042969 309.355469 195.394531 C 310.328125 197.277344 310.734375 200.089844 311.171875 204.429688 C 311.601562 200.089844 312.011719 197.277344 312.980469 195.394531 C 314.996094 196.042969 317.273438 197.742188 320.648438 200.503906 C 317.886719 197.125 316.1875 194.847656 315.539062 192.832031" fill="#fbc439"/></g><path d="M 3155.390625 2323.679688 C 3174.296875 2333.367188 3202.34375 2337.429688 3245.78125 2341.804688 C 3202.34375 2346.140625 3174.296875 2350.203125 3155.390625 2359.890625 C 3161.875 2380.085938 3178.867188 2402.859375 3206.484375 2436.609375 C 3172.734375 2408.992188 3149.960938 2392.039062 3129.804688 2385.515625 C 3120.117188 2404.382812 3116.015625 2432.46875 3111.71875 2475.90625 C 3107.34375 2432.46875 3103.28125 2404.34375 3093.554688 2385.515625 C 3073.398438 2392.039062 3050.625 2408.992188 3016.875 2436.609375 C 3044.492188 2402.820312 3061.445312 2380.085938 3067.96875 2359.890625 C 3049.0625 2350.203125 3021.015625 2346.140625 2977.578125 2341.804688 C 3021.015625 2337.46875 3049.0625 2333.367188 3067.929688 2323.679688 C 3061.445312 2303.523438 3044.453125 2280.75 3016.835938 2246.960938 C 3050.625 2274.617188 3073.398438 2291.570312 3093.554688 2298.054688 C 3103.28125 2279.226562 3107.34375 2251.101562 3111.71875 2207.703125 C 3116.015625 2251.101562 3120.117188 2279.226562 3129.804688 2298.054688 C 3149.960938 2291.570312 3172.734375 2274.578125 3206.484375 2246.960938 C 3178.867188 2280.75 3161.875 2303.523438 3155.390625 2323.679688 Z M 3155.390625 2323.679688" fill="none" stroke="#0a2f4d" stroke-linejoin="round" stroke-miterlimit="10" stroke-width="20" transform="matrix(.1 0 0 -.1 0 425.2)"/><g id="change1_3"><path d="M 205.589844 304.46875 C 206.734375 303.878906 208.441406 303.628906 211.082031 303.363281 C 208.441406 303.101562 206.734375 302.851562 205.589844 302.261719 C 205.980469 301.035156 207.015625 299.652344 208.695312 297.597656 C 206.640625 299.277344 205.257812 300.3125 204.03125 300.707031 C 203.441406 299.558594 203.191406 297.851562 202.929688 295.210938 C 202.664062 297.851562 202.417969 299.558594 201.828125 300.707031 C 200.601562 300.3125 199.21875 299.277344 197.160156 297.597656 C 198.84375 299.652344 199.875 301.035156 200.269531 302.261719 C 199.121094 302.851562 197.414062 303.101562 194.773438 303.363281 C 197.414062 303.628906 199.121094 303.878906 200.269531 304.46875 C 199.875 305.695312 198.84375 307.078125 197.160156 309.132812 C 199.21875 307.449219 200.601562 306.417969 201.828125 306.023438 C 202.417969 307.171875 202.664062 308.878906 202.929688 311.519531 C 203.191406 308.878906 203.441406 307.171875 204.03125 306.023438 C 205.257812 306.417969 206.640625 307.449219 208.695312 309.132812 C 207.015625 307.078125 205.980469 305.695312 205.589844 304.46875" fill="#fbc439"/></g><path d="M 2055.898438 1207.3125 C 2067.34375 1213.210938 2084.414062 1215.710938 2110.820312 1218.367188 C 2084.414062 1220.984375 2067.34375 1223.484375 2055.898438 1229.382812 C 2059.804688 1241.648438 2070.15625 1255.476562 2086.953125 1276.023438 C 2066.40625 1259.226562 2052.578125 1248.875 2040.3125 1244.929688 C 2034.414062 1256.414062 2031.914062 1273.484375 2029.296875 1299.890625 C 2026.640625 1273.484375 2024.179688 1256.414062 2018.28125 1244.929688 C 2006.015625 1248.875 1992.1875 1259.226562 1971.601562 1276.023438 C 1988.4375 1255.476562 1998.75 1241.648438 2002.695312 1229.382812 C 1991.210938 1223.484375 1974.140625 1220.984375 1947.734375 1218.367188 C 1974.140625 1215.710938 1991.210938 1213.210938 2002.695312 1207.3125 C 1998.75 1195.046875 1988.4375 1181.21875 1971.601562 1160.671875 C 1992.1875 1177.507812 2006.015625 1187.820312 2018.28125 1191.765625 C 2024.179688 1180.28125 2026.640625 1163.210938 2029.296875 1136.804688 C 2031.914062 1163.210938 2034.414062 1180.28125 2040.3125 1191.765625 C 2052.578125 1187.820312 2066.40625 1177.507812 2086.953125 1160.671875 C 2070.15625 1181.21875 2059.804688 1195.046875 2055.898438 1207.3125 Z M 2055.898438 1207.3125" fill="none" stroke="#0a2f4d" stroke-linejoin="round" stroke-miterlimit="10" stroke-width="20" transform="matrix(.1 0 0 -.1 0 425.2)"/><g id="change1_4"><path d="M 170.285156 122.933594 C 171.429688 122.34375 173.140625 122.097656 175.78125 121.832031 C 173.140625 121.566406 171.429688 121.320312 170.285156 120.730469 C 170.679688 119.503906 171.710938 118.117188 173.390625 116.066406 C 171.335938 117.746094 169.953125 118.777344 168.726562 119.175781 C 168.136719 118.027344 167.886719 116.316406 167.625 113.679688 C 167.359375 116.316406 167.113281 118.027344 166.523438 119.175781 C 165.296875 118.777344 163.914062 117.746094 161.859375 116.066406 C 163.539062 118.117188 164.570312 119.503906 164.964844 120.730469 C 163.816406 121.320312 162.109375 121.566406 159.46875 121.832031 C 162.109375 122.097656 163.816406 122.34375 164.964844 122.933594 C 164.570312 124.160156 163.539062 125.546875 161.855469 127.601562 C 163.914062 125.917969 165.296875 124.886719 166.523438 124.492188 C 167.113281 125.640625 167.359375 127.347656 167.625 129.988281 C 167.886719 127.347656 168.136719 125.640625 168.726562 124.492188 C 169.953125 124.886719 171.335938 125.917969 173.390625 127.601562 C 171.710938 125.546875 170.679688 124.160156 170.285156 122.933594" fill="#fbc439"/></g><path d="M 1702.851562 3022.664062 C 1714.296875 3028.5625 1731.40625 3031.023438 1757.8125 3033.679688 C 1731.40625 3036.335938 1714.296875 3038.796875 1702.851562 3044.695312 C 1706.796875 3056.960938 1717.109375 3070.828125 1733.90625 3091.335938 C 1713.359375 3074.539062 1699.53125 3064.226562 1687.265625 3060.242188 C 1681.367188 3071.726562 1678.867188 3088.835938 1676.25 3115.203125 C 1673.59375 3088.835938 1671.132812 3071.726562 1665.234375 3060.242188 C 1652.96875 3064.226562 1639.140625 3074.539062 1618.59375 3091.335938 C 1635.390625 3070.828125 1645.703125 3056.960938 1649.648438 3044.695312 C 1638.164062 3038.796875 1621.09375 3036.335938 1594.6875 3033.679688 C 1621.09375 3031.023438 1638.164062 3028.5625 1649.648438 3022.664062 C 1645.703125 3010.398438 1635.390625 2996.53125 1618.554688 2975.984375 C 1639.140625 2992.820312 1652.96875 3003.132812 1665.234375 3007.078125 C 1671.132812 2995.59375 1673.59375 2978.523438 1676.25 2952.117188 C 1678.867188 2978.523438 1681.367188 2995.59375 1687.265625 3007.078125 C 1699.53125 3003.132812 1713.359375 2992.820312 1733.90625 2975.984375 C 1717.109375 2996.53125 1706.796875 3010.398438 1702.851562 3022.664062 Z M 1702.851562 3022.664062" fill="none" stroke="#0a2f4d" stroke-linejoin="round" stroke-miterlimit="10" stroke-width="20" transform="matrix(.1 0 0 -.1 0 425.2)"/><g id="change1_5"><path d="M 229.742188 130.664062 C 230.445312 130.304688 231.496094 130.148438 233.113281 129.988281 C 231.496094 129.824219 230.445312 129.671875 229.742188 129.3125 C 229.984375 128.558594 230.617188 127.710938 231.648438 126.449219 C 230.390625 127.480469 229.539062 128.113281 228.785156 128.355469 C 228.425781 127.652344 228.273438 126.601562 228.109375 124.980469 C 227.949219 126.601562 227.796875 127.652344 227.433594 128.355469 C 226.679688 128.113281 225.828125 127.480469 224.570312 126.449219 C 225.601562 127.710938 226.234375 128.558594 226.476562 129.3125 C 225.773438 129.671875 224.722656 129.824219 223.105469 129.988281 C 224.722656 130.148438 225.773438 130.304688 226.476562 130.664062 C 226.234375 131.417969 225.601562 132.265625 224.570312 133.527344 C 225.828125 132.496094 226.679688 131.863281 227.433594 131.621094 C 227.796875 132.324219 227.949219 133.371094 228.109375 134.996094 C 228.273438 133.371094 228.425781 132.324219 228.785156 131.621094 C 229.539062 131.863281 230.390625 132.496094 231.648438 133.527344 C 230.617188 132.265625 229.984375 131.417969 229.742188 130.664062" fill="#fbc439"/></g><path d="M 2297.421875 2945.359375 C 2304.453125 2948.953125 2314.960938 2950.515625 2331.132812 2952.117188 C 2314.960938 2953.757812 2304.453125 2955.28125 2297.421875 2958.875 C 2299.84375 2966.414062 2306.171875 2974.890625 2316.484375 2987.507812 C 2303.90625 2977.195312 2295.390625 2970.867188 2287.851562 2968.445312 C 2284.257812 2975.476562 2282.734375 2985.984375 2281.09375 3002.195312 C 2279.492188 2985.984375 2277.96875 2975.476562 2274.335938 2968.445312 C 2266.796875 2970.867188 2258.28125 2977.195312 2245.703125 2987.507812 C 2256.015625 2974.890625 2262.34375 2966.414062 2264.765625 2958.875 C 2257.734375 2955.28125 2247.226562 2953.757812 2231.054688 2952.117188 C 2247.226562 2950.515625 2257.734375 2948.953125 2264.765625 2945.359375 C 2262.34375 2937.820312 2256.015625 2929.34375 2245.703125 2916.726562 C 2258.28125 2927.039062 2266.796875 2933.367188 2274.335938 2935.789062 C 2277.96875 2928.757812 2279.492188 2918.289062 2281.09375 2902.039062 C 2282.734375 2918.289062 2284.257812 2928.757812 2287.851562 2935.789062 C 2295.390625 2933.367188 2303.90625 2927.039062 2316.484375 2916.726562 C 2306.171875 2929.34375 2299.84375 2937.820312 2297.421875 2945.359375 Z M 2297.421875 2945.359375" fill="none" stroke="#0a2f4d" stroke-linejoin="round" stroke-miterlimit="10" stroke-width="20" transform="matrix(.1 0 0 -.1 0 425.2)"/><g id="change1_6"><path d="M 145.800781 253.152344 C 146.453125 252.816406 147.421875 252.679688 148.921875 252.527344 C 147.421875 252.378906 146.453125 252.238281 145.800781 251.902344 C 146.027344 251.207031 146.609375 250.421875 147.566406 249.253906 C 146.398438 250.210938 145.613281 250.792969 144.917969 251.019531 C 144.585938 250.367188 144.441406 249.398438 144.292969 247.902344 C 144.144531 249.398438 144.003906 250.367188 143.667969 251.019531 C 142.972656 250.792969 142.1875 250.210938 141.019531 249.257812 C 141.972656 250.421875 142.558594 251.207031 142.785156 251.902344 C 142.132812 252.238281 141.160156 252.378906 139.664062 252.527344 C 141.160156 252.679688 142.132812 252.816406 142.78125 253.152344 C 142.558594 253.851562 141.972656 254.636719 141.019531 255.800781 C 142.1875 254.847656 142.972656 254.261719 143.667969 254.039062 C 144.003906 254.6875 144.144531 255.65625 144.292969 257.15625 C 144.441406 255.65625 144.585938 254.6875 144.917969 254.039062 C 145.613281 254.261719 146.398438 254.847656 147.566406 255.800781 C 146.609375 254.636719 146.027344 253.851562 145.800781 253.152344" fill="#fbc439"/></g><path d="M 1458.007812 1720.476562 C 1464.53125 1723.835938 1474.21875 1725.203125 1489.21875 1726.726562 C 1474.21875 1728.210938 1464.53125 1729.617188 1458.007812 1732.976562 C 1460.273438 1739.929688 1466.09375 1747.78125 1475.664062 1759.460938 C 1463.984375 1749.890625 1456.132812 1744.070312 1449.179688 1741.804688 C 1445.859375 1748.328125 1444.414062 1758.015625 1442.929688 1772.976562 C 1441.445312 1758.015625 1440.039062 1748.328125 1436.679688 1741.804688 C 1429.726562 1744.070312 1421.875 1749.890625 1410.195312 1759.421875 C 1419.726562 1747.78125 1425.585938 1739.929688 1427.851562 1732.976562 C 1421.328125 1729.617188 1411.601562 1728.210938 1396.640625 1726.726562 C 1411.601562 1725.203125 1421.328125 1723.835938 1427.8125 1720.476562 C 1425.585938 1713.484375 1419.726562 1705.632812 1410.195312 1693.992188 C 1421.875 1703.523438 1429.726562 1709.382812 1436.679688 1711.609375 C 1440.039062 1705.125 1441.445312 1695.4375 1442.929688 1680.4375 C 1444.414062 1695.4375 1445.859375 1705.125 1449.179688 1711.609375 C 1456.132812 1709.382812 1463.984375 1703.523438 1475.664062 1693.992188 C 1466.09375 1705.632812 1460.273438 1713.484375 1458.007812 1720.476562 Z M 1458.007812 1720.476562" fill="none" stroke="#0a2f4d" stroke-linejoin="round" stroke-miterlimit="10" stroke-width="20" transform="matrix(.1 0 0 -.1 0 425.2)"/><g id="change1_7"><path d="M 270.292969 150.972656 C 267.941406 153.421875 264.054688 153.503906 261.605469 151.148438 C 259.15625 148.800781 259.078125 144.914062 261.429688 142.464844 C 263.777344 140.015625 267.667969 139.9375 270.113281 142.285156 C 272.5625 144.636719 272.640625 148.527344 270.292969 150.972656" fill="#fbc439"/></g><path d="M 2702.929688 2742.273438 C 2679.414062 2717.78125 2640.546875 2716.960938 2616.054688 2740.515625 C 2591.5625 2763.992188 2590.78125 2802.859375 2614.296875 2827.351562 C 2637.773438 2851.84375 2676.679688 2852.625 2701.132812 2829.148438 C 2725.625 2805.632812 2726.40625 2766.726562 2702.929688 2742.273438 Z M 2702.929688 2742.273438" fill="none" stroke="#0a2f4d" stroke-linejoin="round" stroke-miterlimit="10" stroke-width="20" transform="matrix(.1 0 0 -.1 0 425.2)"/><g id="change1_8"><path d="M 302.191406 253.410156 C 299.839844 255.855469 295.953125 255.9375 293.503906 253.585938 C 291.058594 251.234375 290.976562 247.347656 293.328125 244.898438 C 295.675781 242.449219 299.566406 242.375 302.015625 244.722656 C 304.460938 247.074219 304.539062 250.960938 302.191406 253.410156" fill="#fbc439"/></g><path d="M 3021.914062 1717.898438 C 2998.398438 1693.445312 2959.53125 1692.625 2935.039062 1716.140625 C 2910.585938 1739.65625 2909.765625 1778.523438 2933.28125 1803.015625 C 2956.757812 1827.507812 2995.664062 1828.25 3020.15625 1804.773438 C 3044.609375 1781.257812 3045.390625 1742.390625 3021.914062 1717.898438 Z M 3021.914062 1717.898438" fill="none" stroke="#0a2f4d" stroke-linejoin="round" stroke-miterlimit="10" stroke-width="20" transform="matrix(.1 0 0 -.1 0 425.2)"/><g id="change1_9"><path d="M 226.496094 284.753906 C 222.847656 288.550781 216.8125 288.679688 213.011719 285.027344 C 209.214844 281.378906 209.089844 275.34375 212.738281 271.542969 C 216.386719 267.746094 222.421875 267.621094 226.222656 271.269531 C 230.019531 274.917969 230.148438 280.953125 226.496094 284.753906" fill="#fbc439"/></g><path d="M 2264.960938 1404.460938 C 2228.476562 1366.492188 2168.125 1365.203125 2130.117188 1401.726562 C 2092.148438 1438.210938 2090.898438 1498.5625 2127.382812 1536.570312 C 2163.867188 1574.539062 2224.21875 1575.789062 2262.226562 1539.304688 C 2300.195312 1502.820312 2301.484375 1442.46875 2264.960938 1404.460938 Z M 2264.960938 1404.460938" fill="none" stroke="#0a2f4d" stroke-linejoin="round" stroke-miterlimit="10" stroke-width="20" transform="matrix(.1 0 0 -.1 0 425.2)"/><g id="change1_10"><path d="M 140.472656 184.304688 C 138.960938 185.882812 136.457031 185.929688 134.878906 184.417969 C 133.304688 182.902344 133.253906 180.398438 134.765625 178.824219 C 136.277344 177.246094 138.785156 177.195312 140.359375 178.710938 C 141.9375 180.222656 141.988281 182.730469 140.472656 184.304688" fill="#fbc439"/></g><path d="M 1404.726562 2408.953125 C 1389.609375 2393.171875 1364.570312 2392.703125 1348.789062 2407.820312 C 1333.046875 2422.976562 1332.539062 2448.015625 1347.65625 2463.757812 C 1362.773438 2479.539062 1387.851562 2480.046875 1403.59375 2464.890625 C 1419.375 2449.773438 1419.882812 2424.695312 1404.726562 2408.953125 Z M 1404.726562 2408.953125" fill="none" stroke="#0a2f4d" stroke-linejoin="round" stroke-miterlimit="10" stroke-width="20" transform="matrix(.1 0 0 -.1 0 425.2)"/><path d="M 2199.335938 2566.023438 C 2199.335938 2566.023438 2459.101562 2752.820312 2558.320312 2782" fill="none" stroke="#0a2f4d" stroke-linecap="round" stroke-linejoin="round" stroke-miterlimit="10" stroke-width="20" transform="matrix(.1 0 0 -.1 0 425.2)"/><path d="M 1494.726562 1826.726562 C 1494.726562 1826.726562 1667.226562 2079.65625 1869.570312 2270.28125" fill="none" stroke="#0a2f4d" stroke-linecap="round" stroke-linejoin="round" stroke-miterlimit="10" stroke-width="20" transform="matrix(.1 0 0 -.1 0 425.2)"/><g id="change2_1"><path d="M 259.230469 203.734375 C 259.230469 204.644531 259.203125 205.542969 259.144531 206.441406 C 259.113281 207.222656 259.054688 207.996094 258.972656 208.765625 C 257.535156 223.054688 249.992188 235.542969 239.011719 243.609375 C 238.273438 244.148438 237.515625 244.675781 236.746094 245.175781 C 229.003906 250.21875 219.757812 253.148438 209.824219 253.148438 C 206.730469 253.148438 203.710938 252.867188 200.777344 252.320312 C 195.875 251.410156 191.230469 249.785156 186.957031 247.546875 C 186.269531 247.183594 185.578125 246.808594 184.914062 246.414062 C 183.398438 245.527344 181.9375 244.566406 180.527344 243.527344 C 168.328125 234.527344 160.410156 220.054688 160.410156 203.734375 C 160.410156 200.6875 160.691406 197.710938 161.21875 194.816406 C 161.355469 194.046875 161.519531 193.285156 161.683594 192.527344 C 164.089844 182.183594 169.726562 173.09375 177.488281 166.378906 C 178.085938 165.875 178.679688 165.375 179.300781 164.882812 C 187.703125 158.277344 198.304688 154.332031 209.824219 154.332031 C 218.03125 154.332031 225.78125 156.339844 232.589844 159.875 C 233.3125 160.261719 234.023438 160.644531 234.738281 161.066406 C 249.386719 169.636719 259.230469 185.535156 259.230469 203.734375" fill="#d3d2d2"/></g><path d="M 2592.304688 2214.65625 C 2592.304688 2205.554688 2592.03125 2196.570312 2591.445312 2187.585938 C 2591.132812 2179.773438 2590.546875 2172.039062 2589.726562 2164.34375 C 2575.351562 2021.453125 2499.921875 1896.570312 2390.117188 1815.90625 C 2382.734375 1810.515625 2375.15625 1805.242188 2367.460938 1800.242188 C 2290.039062 1749.8125 2197.578125 1720.515625 2098.242188 1720.515625 C 2067.304688 1720.515625 2037.109375 1723.328125 2007.773438 1728.796875 C 1958.75 1737.898438 1912.304688 1754.148438 1869.570312 1776.53125 C 1862.695312 1780.164062 1855.78125 1783.914062 1849.140625 1787.859375 C 1833.984375 1796.726562 1819.375 1806.335938 1805.273438 1816.726562 C 1683.28125 1906.726562 1604.101562 2051.453125 1604.101562 2214.65625 C 1604.101562 2245.125 1606.914062 2274.890625 1612.1875 2303.835938 C 1613.554688 2311.53125 1615.195312 2319.148438 1616.835938 2326.726562 C 1640.898438 2430.164062 1697.265625 2521.0625 1774.882812 2588.210938 C 1780.859375 2593.25 1786.796875 2598.25 1793.007812 2603.171875 C 1877.03125 2669.226562 1983.046875 2708.679688 2098.242188 2708.679688 C 2180.3125 2708.679688 2257.8125 2688.601562 2325.898438 2653.25 C 2333.125 2649.382812 2340.234375 2645.554688 2347.382812 2641.335938 C 2493.867188 2555.632812 2592.304688 2396.648438 2592.304688 2214.65625 Z M 2592.304688 2214.65625" fill="none" stroke="#0a2f4d" stroke-linecap="round" stroke-linejoin="round" stroke-miterlimit="10" stroke-width="20" transform="matrix(.1 0 0 -.1 0 425.2)"/><g id="change3_1"><path d="M 211.605469 154.382812 C 211.011719 154.359375 210.421875 154.332031 209.824219 154.332031 C 198.304688 154.332031 187.703125 158.277344 179.300781 164.882812 C 178.679688 165.375 178.085938 165.875 177.488281 166.378906 C 169.726562 173.09375 164.089844 182.183594 161.683594 192.527344 C 161.519531 193.285156 161.355469 194.046875 161.21875 194.816406 C 160.691406 197.710938 160.410156 200.6875 160.410156 203.734375 C 160.410156 204.335938 160.4375 204.929688 160.460938 205.523438 C 177.507812 188.476562 194.554688 171.429688 211.605469 154.382812" fill="#55beb3"/></g><path d="M 2116.054688 2708.171875 C 2110.117188 2708.40625 2104.21875 2708.679688 2098.242188 2708.679688 C 1983.046875 2708.679688 1877.03125 2669.226562 1793.007812 2603.171875 C 1786.796875 2598.25 1780.859375 2593.25 1774.882812 2588.210938 C 1697.265625 2521.0625 1640.898438 2430.164062 1616.835938 2326.726562 C 1615.195312 2319.148438 1613.554688 2311.53125 1612.1875 2303.835938 C 1606.914062 2274.890625 1604.101562 2245.125 1604.101562 2214.65625 C 1604.101562 2208.640625 1604.375 2202.703125 1604.609375 2196.765625 C 1775.078125 2367.234375 1945.546875 2537.703125 2116.054688 2708.171875 Z M 2116.054688 2708.171875" fill="none" stroke="#0a2f4d" stroke-linejoin="round" stroke-miterlimit="10" stroke-width="20" transform="matrix(.1 0 0 -.1 0 425.2)"/><g id="change1_11"><path d="M 207.042969 253.0625 C 207.964844 253.113281 208.890625 253.148438 209.824219 253.148438 C 219.757812 253.148438 229.003906 250.21875 236.746094 245.175781 C 237.515625 244.675781 238.273438 244.148438 239.011719 243.609375 C 249.992188 235.542969 257.535156 223.054688 258.972656 208.765625 C 259.054688 207.996094 259.113281 207.222656 259.144531 206.441406 C 259.203125 205.542969 259.230469 204.644531 259.230469 203.734375 C 259.230469 202.804688 259.191406 201.882812 259.140625 200.964844 C 241.773438 218.328125 224.410156 235.699219 207.042969 253.0625" fill="#fbc439"/></g><path d="M 2070.429688 1721.375 C 2079.648438 1720.867188 2088.90625 1720.515625 2098.242188 1720.515625 C 2197.578125 1720.515625 2290.039062 1749.8125 2367.460938 1800.242188 C 2375.15625 1805.242188 2382.734375 1810.515625 2390.117188 1815.90625 C 2499.921875 1896.570312 2575.351562 2021.453125 2589.726562 2164.34375 C 2590.546875 2172.039062 2591.132812 2179.773438 2591.445312 2187.585938 C 2592.03125 2196.570312 2592.304688 2205.554688 2592.304688 2214.65625 C 2592.304688 2223.953125 2591.914062 2233.171875 2591.40625 2242.351562 C 2417.734375 2068.71875 2244.101562 1895.007812 2070.429688 1721.375 Z M 2070.429688 1721.375" fill="none" stroke="#0a2f4d" stroke-linejoin="round" stroke-miterlimit="10" stroke-width="20" transform="matrix(.1 0 0 -.1 0 425.2)"/><g id="change4_1"><path d="M 239.011719 243.609375 C 238.273438 244.148438 237.515625 244.675781 236.746094 245.175781 C 236.804688 243.867188 236.523438 242.5625 235.730469 241.195312 C 233.652344 237.589844 230.175781 237.226562 226.132812 236.816406 C 222.058594 236.398438 217.4375 235.929688 214.753906 231.285156 C 212.078125 226.640625 214.003906 222.398438 215.695312 218.664062 C 217.367188 214.964844 218.804688 211.777344 216.726562 208.171875 C 214.65625 204.5625 211.167969 204.214844 207.140625 203.792969 C 203.054688 203.382812 198.433594 202.90625 195.761719 198.257812 C 193.085938 193.625 195 189.386719 196.691406 185.648438 C 198.363281 181.949219 199.808594 178.765625 197.730469 175.15625 C 195.65625 171.550781 192.175781 171.1875 188.136719 170.78125 C 184.425781 170.40625 180.234375 169.972656 177.488281 166.378906 C 178.085938 165.875 178.679688 165.375 179.300781 164.882812 C 181.410156 167.757812 184.65625 168.082031 188.371094 168.453125 C 192.453125 168.875 197.078125 169.34375 199.753906 173.988281 C 202.425781 178.636719 200.511719 182.875 198.816406 186.609375 C 197.148438 190.296875 195.699219 193.496094 197.777344 197.101562 C 199.855469 200.710938 203.335938 201.0625 207.375 201.46875 C 211.460938 201.890625 216.082031 202.355469 218.757812 207.003906 C 221.429688 211.648438 219.515625 215.886719 217.820312 219.621094 C 216.152344 223.320312 214.707031 226.511719 216.78125 230.117188 C 218.863281 233.722656 222.339844 234.085938 226.378906 234.492188 C 230.453125 234.914062 235.089844 235.382812 237.761719 240.027344 C 238.460938 241.253906 238.847656 242.445312 239.011719 243.609375" fill="#0a2f4d"/></g><g id="change4_2"><path d="M 259.144531 206.441406 C 259.113281 207.222656 259.054688 207.996094 258.972656 208.765625 C 258.074219 208.601562 257.105469 208.496094 256.089844 208.402344 C 252.574219 208.042969 248.59375 207.632812 246.28125 203.605469 C 243.972656 199.589844 245.617188 195.945312 247.066406 192.726562 C 248.464844 189.632812 249.679688 186.960938 247.964844 183.972656 C 246.234375 180.980469 243.316406 180.6875 239.945312 180.339844 C 236.429688 179.988281 232.449219 179.582031 230.136719 175.554688 C 227.816406 171.527344 229.472656 167.886719 230.917969 164.675781 C 231.679688 162.992188 232.390625 161.429688 232.589844 159.875 C 233.3125 160.261719 234.023438 160.644531 234.738281 161.066406 C 234.386719 162.675781 233.699219 164.195312 233.046875 165.632812 C 231.644531 168.722656 230.441406 171.398438 232.15625 174.386719 C 233.875 177.375 236.792969 177.679688 240.175781 178.015625 C 243.691406 178.378906 247.660156 178.789062 249.984375 182.8125 C 252.296875 186.828125 250.648438 190.472656 249.199219 193.695312 C 247.800781 196.785156 246.585938 199.460938 248.300781 202.449219 C 250.03125 205.4375 252.945312 205.730469 256.320312 206.078125 C 257.246094 206.175781 258.203125 206.265625 259.144531 206.441406" fill="#0a2f4d"/></g><g id="change4_3"><path d="M 184.914062 246.414062 C 183.398438 245.527344 181.9375 244.566406 180.527344 243.527344 C 179.789062 240.425781 181.085938 237.578125 182.253906 234.996094 C 183.652344 231.890625 184.855469 229.230469 183.140625 226.238281 C 181.421875 223.253906 178.503906 222.949219 175.121094 222.609375 C 171.605469 222.25 167.636719 221.839844 165.316406 217.8125 C 163.003906 213.796875 164.648438 210.152344 166.097656 206.933594 C 167.496094 203.839844 168.710938 201.164062 166.992188 198.175781 C 165.664062 195.878906 163.621094 195.179688 161.21875 194.816406 C 161.355469 194.046875 161.519531 193.285156 161.683594 192.527344 C 164.460938 192.957031 167.230469 193.914062 169.015625 197.011719 C 171.339844 201.035156 169.679688 204.679688 168.234375 207.898438 C 166.832031 210.996094 165.617188 213.667969 167.332031 216.65625 C 169.0625 219.644531 171.980469 219.9375 175.355469 220.285156 C 178.867188 220.636719 182.847656 221.046875 185.160156 225.074219 C 187.480469 229.101562 185.824219 232.742188 184.378906 235.953125 C 182.976562 239.046875 181.761719 241.71875 183.488281 244.710938 C 183.898438 245.421875 184.378906 245.980469 184.914062 246.414062" fill="#0a2f4d"/></g><g id="change4_4"><path d="M 200.777344 252.320312 C 195.875 251.410156 191.230469 249.785156 186.957031 247.546875 C 188.300781 248.019531 189.851562 248.164062 191.511719 248.339844 C 194.753906 248.675781 198.421875 249.050781 200.777344 252.320312" fill="#0a2f4d"/></g><path d="M 2007.773438 1842.273438 C 2007.773438 1842.273438 2811.640625 2542.703125 2720 2725.554688 C 2675.039062 2783.953125 2440.625 2628.289062 2440.625 2628.289062" fill="none" stroke="#0a2f4d" stroke-linecap="round" stroke-linejoin="round" stroke-miterlimit="10" stroke-width="20" transform="matrix(.1 0 0 -.1 0 425.2)"/><path d="M 2631.601562 2391.765625 C 2789.726562 2578.210938 2901.875 2753.132812 2859.0625 2838.601562 C 2837.773438 2866.21875 2782.929688 2855.828125 2722.65625 2832.117188" fill="none" stroke="#0a2f4d" stroke-linecap="round" stroke-linejoin="round" stroke-miterlimit="10" stroke-width="20" transform="matrix(.1 0 0 -.1 0 425.2)"/><path d="M 2098.203125 2032.9375 C 2098.203125 2032.9375 1726.71875 1706.0625 1632.773438 1702.195312 C 1538.828125 1698.289062 1682.773438 1842.273438 1682.773438 1842.273438" fill="none" stroke="#0a2f4d" stroke-linecap="round" stroke-linejoin="round" stroke-miterlimit="10" stroke-width="20" transform="matrix(.1 0 0 -.1 0 425.2)"/><path d="M 2229.804688 1973.484375 C 2229.804688 1973.484375 1661.679688 1473.601562 1518.007812 1467.664062" fill="none" stroke="#0a2f4d" stroke-linecap="round" stroke-linejoin="round" stroke-miterlimit="10" stroke-width="20" transform="matrix(.1 0 0 -.1 0 425.2)"/><path d="M 1600.9375 1842.273438 C 1600.9375 1842.273438 1434.921875 1616.570312 1518.007812 1581.53125" fill="none" stroke="#0a2f4d" stroke-linecap="round" stroke-linejoin="round" stroke-miterlimit="10" stroke-width="20" transform="matrix(.1 0 0 -.1 0 425.2)"/><g id="change4_5"><path d="M 266.628906 145.523438 C 266.628906 146.480469 265.851562 147.261719 264.894531 147.261719 C 263.9375 147.261719 263.160156 146.480469 263.160156 145.523438 C 263.160156 144.566406 263.9375 143.789062 264.894531 143.789062 C 265.851562 143.789062 266.628906 144.566406 266.628906 145.523438" fill="#0a2f4d"/></g><g id="change4_6"><path d="M 228.980469 224.90625 C 228.980469 225.863281 228.203125 226.640625 227.246094 226.640625 C 226.289062 226.640625 225.511719 225.863281 225.511719 224.90625 C 225.511719 223.945312 226.289062 223.171875 227.246094 223.171875 C 228.203125 223.171875 228.980469 223.945312 228.980469 224.90625" fill="#0a2f4d"/></g><g id="change4_7"><path d="M 163.882812 237.617188 C 163.882812 238.574219 163.105469 239.351562 162.144531 239.351562 C 161.1875 239.351562 160.410156 238.574219 160.410156 237.617188 C 160.410156 236.65625 161.1875 235.882812 162.144531 235.882812 C 163.105469 235.882812 163.882812 236.65625 163.882812 237.617188" fill="#0a2f4d"/></g><path d="M 1412.773438 1538.445312 C 1412.773438 1538.445312 1336.914062 1421.726562 1430.585938 1396.882812" fill="none" stroke="#0a2f4d" stroke-linecap="round" stroke-linejoin="round" stroke-miterlimit="10" stroke-width="20" transform="matrix(.1 0 0 -.1 0 425.2)"/><path d="M 1797.734375 2514.460938 C 1797.734375 2514.460938 1937.734375 2676.296875 2178.007812 2633.640625" fill="none" stroke="#0a2f4d" stroke-linecap="round" stroke-linejoin="round" stroke-miterlimit="10" stroke-width="20" transform="matrix(.1 0 0 -.1 0 425.2)"/><g id="change4_8"><path d="M 225.347656 163.003906 C 225.347656 164.039062 224.503906 164.882812 223.464844 164.882812 C 222.425781 164.882812 221.582031 164.039062 221.582031 163.003906 C 221.582031 161.960938 222.425781 161.121094 223.464844 161.121094 C 224.503906 161.121094 225.347656 161.960938 225.347656 163.003906" fill="#0a2f4d"/></g></g></svg>