<?xml version="1.0" encoding="UTF-8"?>
<svg xmlns="http://www.w3.org/2000/svg" xmlns:xlink="http://www.w3.org/1999/xlink" height="255.6" preserveAspectRatio="xMidYMid meet" version="1.0" viewBox="132.9 80.2 159.5 255.6" width="159.5" zoomAndPan="magnify"><g><g id="change1_1"><path d="M 271.492188 202.730469 L 153.710938 202.730469 C 142.796875 202.730469 133.871094 236.039062 133.871094 246.949219 L 133.871094 295.921875 C 133.871094 305.925781 136.078125 314.242188 145.738281 315.554688 L 145.738281 264.28125 L 280.640625 264.28125 L 280.640625 315.554688 C 290.300781 314.242188 291.328125 305.925781 291.328125 295.921875 L 291.328125 246.949219 C 291.328125 236.039062 282.402344 202.730469 271.492188 202.730469" fill="#d3d2d2"/></g><path d="M 2714.921875 2224.695312 L 1537.109375 2224.695312 C 1427.96875 2224.695312 1338.710938 1891.609375 1338.710938 1782.507812 L 1338.710938 1292.78125 C 1338.710938 1192.742188 1360.78125 1109.578125 1457.382812 1096.453125 L 1457.382812 1609.1875 L 2806.40625 1609.1875 L 2806.40625 1096.453125 C 2903.007812 1109.578125 2913.28125 1192.742188 2913.28125 1292.78125 L 2913.28125 1782.507812 C 2913.28125 1891.609375 2824.023438 2224.695312 2714.921875 2224.695312 Z M 2714.921875 2224.695312" fill="none" stroke="#0a2f4d" stroke-linecap="round" stroke-linejoin="round" stroke-miterlimit="10" stroke-width="20" transform="matrix(.1 0 0 -.1 0 425.2)"/><path d="M 2878.085938 1686.84375 L 2878.085938 1415.671875" fill="none" stroke="#0a2f4d" stroke-linecap="round" stroke-linejoin="round" stroke-miterlimit="10" stroke-width="20" transform="matrix(.1 0 0 -.1 0 425.2)"/><g id="change2_1"><path d="M 180.117188 231.941406 C 180.117188 242.179688 171.816406 250.484375 161.574219 250.484375 C 151.332031 250.484375 143.027344 242.179688 143.027344 231.941406 C 143.027344 221.699219 151.332031 213.394531 161.574219 213.394531 C 171.816406 213.394531 180.117188 221.699219 180.117188 231.941406" fill="#fbc439"/></g><path d="M 1801.171875 1932.585938 C 1801.171875 1830.203125 1718.164062 1747.15625 1615.742188 1747.15625 C 1513.320312 1747.15625 1430.273438 1830.203125 1430.273438 1932.585938 C 1430.273438 2035.007812 1513.320312 2118.054688 1615.742188 2118.054688 C 1718.164062 2118.054688 1801.171875 2035.007812 1801.171875 1932.585938 Z M 1801.171875 1932.585938" fill="none" stroke="#0a2f4d" stroke-linejoin="round" stroke-miterlimit="10" stroke-width="20" transform="matrix(.1 0 0 -.1 0 425.2)"/><g id="change3_1"><path d="M 174.296875 236.371094 C 174.296875 238.765625 172.753906 240.726562 170.859375 240.726562 L 152.285156 240.726562 C 150.394531 240.726562 148.847656 238.765625 148.847656 236.371094 L 148.847656 227.511719 C 148.847656 225.113281 150.394531 223.152344 152.285156 223.152344 L 170.859375 223.152344 C 172.753906 223.152344 174.296875 225.113281 174.296875 227.511719 L 174.296875 236.371094" fill="#0a2f4d"/></g><g id="change1_2"><path d="M 170.117188 230.339844 C 170.117188 233.949219 167.191406 236.871094 163.589844 236.871094 C 159.980469 236.871094 157.058594 233.949219 157.058594 230.339844 C 157.058594 226.734375 159.980469 223.8125 163.589844 223.8125 C 167.191406 223.8125 170.117188 226.734375 170.117188 230.339844" fill="#d3d2d2"/></g><path d="M 1701.171875 1948.601562 C 1701.171875 1912.507812 1671.914062 1883.289062 1635.898438 1883.289062 C 1599.804688 1883.289062 1570.585938 1912.507812 1570.585938 1948.601562 C 1570.585938 1984.65625 1599.804688 2013.875 1635.898438 2013.875 C 1671.914062 2013.875 1701.171875 1984.65625 1701.171875 1948.601562 Z M 1701.171875 1948.601562" fill="none" stroke="#0a2f4d" stroke-linecap="round" stroke-linejoin="round" stroke-miterlimit="10" stroke-width="20" transform="matrix(.1 0 0 -.1 0 425.2)"/><g id="change2_2"><path d="M 284.1875 231.941406 C 284.1875 221.699219 275.882812 213.394531 265.640625 213.394531 C 255.398438 213.394531 247.09375 221.699219 247.09375 231.941406 C 247.09375 242.179688 255.398438 250.484375 265.640625 250.484375 C 275.882812 250.484375 284.1875 242.179688 284.1875 231.941406" fill="#fbc439"/></g><path d="M 2841.875 1932.585938 C 2841.875 2035.007812 2758.828125 2118.054688 2656.40625 2118.054688 C 2553.984375 2118.054688 2470.9375 2035.007812 2470.9375 1932.585938 C 2470.9375 1830.203125 2553.984375 1747.15625 2656.40625 1747.15625 C 2758.828125 1747.15625 2841.875 1830.203125 2841.875 1932.585938 Z M 2841.875 1932.585938" fill="none" stroke="#0a2f4d" stroke-linejoin="round" stroke-miterlimit="10" stroke-width="20" transform="matrix(.1 0 0 -.1 0 425.2)"/><g id="change3_2"><path d="M 278.363281 227.507812 C 278.363281 225.113281 276.820312 223.152344 274.929688 223.152344 L 256.355469 223.152344 C 254.464844 223.152344 252.914062 225.113281 252.914062 227.507812 L 252.914062 236.371094 C 252.914062 238.765625 254.464844 240.726562 256.355469 240.726562 L 274.929688 240.726562 C 276.820312 240.726562 278.363281 238.765625 278.363281 236.371094 L 278.363281 227.507812" fill="#0a2f4d"/></g><g id="change1_3"><path d="M 274.183594 233.539062 C 274.183594 229.933594 271.261719 227.007812 267.65625 227.007812 C 264.050781 227.007812 261.125 229.933594 261.125 233.539062 C 261.125 237.144531 264.050781 240.066406 267.65625 240.066406 C 271.261719 240.066406 274.183594 237.144531 274.183594 233.539062" fill="#d3d2d2"/></g><path d="M 2741.835938 1916.609375 C 2741.835938 1952.664062 2712.617188 1981.921875 2676.5625 1981.921875 C 2640.507812 1981.921875 2611.25 1952.664062 2611.25 1916.609375 C 2611.25 1880.554688 2640.507812 1851.335938 2676.5625 1851.335938 C 2712.617188 1851.335938 2741.835938 1880.554688 2741.835938 1916.609375 Z M 2741.835938 1916.609375" fill="none" stroke="#0a2f4d" stroke-linecap="round" stroke-linejoin="round" stroke-miterlimit="10" stroke-width="20" transform="matrix(.1 0 0 -.1 0 425.2)"/><g id="change1_4"><path d="M 275.304688 334.75 L 149.894531 334.75 L 149.894531 270.285156 L 275.304688 270.285156 L 275.304688 334.75" fill="#d3d2d2"/></g><path d="M 2753.046875 904.5 L 1498.945312 904.5 L 1498.945312 1549.148438 L 2753.046875 1549.148438 Z M 2753.046875 904.5" fill="none" stroke="#0a2f4d" stroke-linecap="round" stroke-linejoin="round" stroke-miterlimit="10" stroke-width="20" transform="matrix(.1 0 0 -.1 0 425.2)"/><g id="change4_1"><path d="M 260.527344 334.75 L 171.179688 334.75 L 171.179688 270.285156 L 260.527344 270.285156 L 260.527344 334.75" fill="#55beb3"/></g><path d="M 2605.273438 904.5 L 1711.796875 904.5 L 1711.796875 1549.148438 L 2605.273438 1549.148438 Z M 2605.273438 904.5" fill="none" stroke="#0a2f4d" stroke-linejoin="round" stroke-miterlimit="10" stroke-width="20" transform="matrix(.1 0 0 -.1 0 425.2)"/><g id="change1_5"><path d="M 165.214844 302.519531 C 165.214844 305.558594 162.753906 308.019531 159.710938 308.019531 C 156.671875 308.019531 154.210938 305.558594 154.210938 302.519531 C 154.210938 299.480469 156.671875 297.015625 159.710938 297.015625 C 162.753906 297.015625 165.214844 299.480469 165.214844 302.519531" fill="#d3d2d2"/></g><path d="M 1652.148438 1226.804688 C 1652.148438 1196.414062 1627.539062 1171.804688 1597.109375 1171.804688 C 1566.71875 1171.804688 1542.109375 1196.414062 1542.109375 1226.804688 C 1542.109375 1257.195312 1566.71875 1281.84375 1597.109375 1281.84375 C 1627.539062 1281.84375 1652.148438 1257.195312 1652.148438 1226.804688 Z M 1652.148438 1226.804688" fill="none" stroke="#0a2f4d" stroke-linecap="round" stroke-linejoin="round" stroke-miterlimit="10" stroke-width="20" transform="matrix(.1 0 0 -.1 0 425.2)"/><g id="change2_3"><path d="M 154.851562 327.5625 L 140.914062 327.5625 L 140.914062 288.15625 L 154.851562 297.015625 L 154.851562 327.5625" fill="#fbc439"/></g><path d="M 1548.515625 976.375 L 1409.140625 976.375 L 1409.140625 1370.4375 L 1548.515625 1281.84375 Z M 1548.515625 976.375" fill="none" stroke="#0a2f4d" stroke-linejoin="round" stroke-miterlimit="10" stroke-width="20" transform="matrix(.1 0 0 -.1 0 425.2)"/><g id="change2_4"><path d="M 270.351562 327.5625 L 284.285156 327.5625 L 284.285156 288.15625 L 270.351562 297.015625 L 270.351562 327.5625" fill="#fbc439"/></g><path d="M 2703.515625 976.375 L 2842.851562 976.375 L 2842.851562 1370.4375 L 2703.515625 1281.84375 Z M 2703.515625 976.375" fill="none" stroke="#0a2f4d" stroke-linejoin="round" stroke-miterlimit="10" stroke-width="20" transform="matrix(.1 0 0 -.1 0 425.2)"/><g id="change1_6"><path d="M 189.894531 251.484375 C 189.894531 254.261719 187.640625 256.515625 184.859375 256.515625 C 182.082031 256.515625 179.828125 254.261719 179.828125 251.484375 C 179.828125 248.703125 182.082031 246.449219 184.859375 246.449219 C 187.640625 246.449219 189.894531 248.703125 189.894531 251.484375" fill="#d3d2d2"/></g><path d="M 1898.945312 1737.15625 C 1898.945312 1709.382812 1876.40625 1686.84375 1848.59375 1686.84375 C 1820.820312 1686.84375 1798.28125 1709.382812 1798.28125 1737.15625 C 1798.28125 1764.96875 1820.820312 1787.507812 1848.59375 1787.507812 C 1876.40625 1787.507812 1898.945312 1764.96875 1898.945312 1737.15625 Z M 1898.945312 1737.15625" fill="none" stroke="#0a2f4d" stroke-linecap="round" stroke-linejoin="round" stroke-miterlimit="10" stroke-width="20" transform="matrix(.1 0 0 -.1 0 425.2)"/><g id="change1_7"><path d="M 245.371094 251.484375 C 245.371094 254.261719 243.117188 256.515625 240.339844 256.515625 C 237.5625 256.515625 235.308594 254.261719 235.308594 251.484375 C 235.308594 248.703125 237.5625 246.449219 240.339844 246.449219 C 243.117188 246.449219 245.371094 248.703125 245.371094 251.484375" fill="#d3d2d2"/></g><path d="M 2453.710938 1737.15625 C 2453.710938 1709.382812 2431.171875 1686.84375 2403.398438 1686.84375 C 2375.625 1686.84375 2353.085938 1709.382812 2353.085938 1737.15625 C 2353.085938 1764.96875 2375.625 1787.507812 2403.398438 1787.507812 C 2431.171875 1787.507812 2453.710938 1764.96875 2453.710938 1737.15625 Z M 2453.710938 1737.15625" fill="none" stroke="#0a2f4d" stroke-linecap="round" stroke-linejoin="round" stroke-miterlimit="10" stroke-width="20" transform="matrix(.1 0 0 -.1 0 425.2)"/><g id="change1_8"><path d="M 222.09375 250.484375 L 203.109375 250.484375 L 203.109375 242.710938 L 222.09375 242.710938 L 222.09375 250.484375" fill="#d3d2d2"/></g><path d="M 2220.9375 1747.15625 L 2031.09375 1747.15625 L 2031.09375 1824.890625 L 2220.9375 1824.890625 Z M 2220.9375 1747.15625" fill="none" stroke="#0a2f4d" stroke-linecap="round" stroke-linejoin="round" stroke-miterlimit="10" stroke-width="20" transform="matrix(.1 0 0 -.1 0 425.2)"/><g id="change4_2"><path d="M 228.464844 209.648438 L 196.734375 209.648438 L 196.734375 194.421875 L 228.464844 194.421875 L 228.464844 209.648438" fill="#55beb3"/></g><path d="M 2284.648438 2155.515625 L 1967.34375 2155.515625 L 1967.34375 2307.78125 L 2284.648438 2307.78125 Z M 2284.648438 2155.515625" fill="none" stroke="#0a2f4d" stroke-linejoin="round" stroke-miterlimit="10" stroke-width="20" transform="matrix(.1 0 0 -.1 0 425.2)"/><g id="change3_3"><path d="M 214.347656 142.382812 L 210.855469 142.382812 L 210.855469 194.421875 L 214.347656 194.421875 L 214.347656 142.382812" fill="#0a2f4d"/></g><g id="change3_4"><path d="M 216.195312 143.96875 L 209.007812 143.96875 L 209.007812 142.382812 L 216.195312 142.382812 L 216.195312 143.96875" fill="#0a2f4d"/></g><path d="M 1940.351562 2922.390625 C 2042.890625 3045.046875 2209.101562 3045.046875 2311.640625 2922.390625" fill="none" stroke="#0a2f4d" stroke-linecap="round" stroke-linejoin="round" stroke-miterlimit="10" stroke-width="20" transform="matrix(.1 0 0 -.1 0 425.2)"/><path d="M 1757.890625 2968.40625 C 1961.171875 3211.609375 2290.820312 3211.609375 2494.101562 2968.40625" fill="none" stroke="#0a2f4d" stroke-linecap="round" stroke-linejoin="round" stroke-miterlimit="10" stroke-width="20" transform="matrix(.1 0 0 -.1 0 425.2)"/><path d="M 1545.039062 3059.578125 C 1865.898438 3443.484375 2386.132812 3443.484375 2706.992188 3059.578125" fill="none" stroke="#0a2f4d" stroke-linecap="round" stroke-linejoin="round" stroke-miterlimit="10" stroke-width="20" transform="matrix(.1 0 0 -.1 0 425.2)"/><path d="M 1571.953125 2192.351562 L 1903.90625 2192.351562" fill="none" stroke="#0a2f4d" stroke-linecap="round" stroke-linejoin="round" stroke-miterlimit="10" stroke-width="20" transform="matrix(.1 0 0 -.1 0 425.2)"/><g id="change3_5"><path d="M 153.222656 207.214844 C 152.53125 207.214844 151.972656 206.65625 151.972656 205.964844 C 151.972656 205.273438 152.53125 204.714844 153.222656 204.714844 C 153.914062 204.714844 154.472656 205.273438 154.472656 205.964844 C 154.472656 206.65625 153.914062 207.214844 153.222656 207.214844" fill="#0a2f4d"/></g></g></svg>